<svg xmlns="http://www.w3.org/2000/svg" xmlns:xlink="http://www.w3.org/1999/xlink" viewBox="0 0 24 24">
  <defs/>
  <defs>
    <path id="person-a" d="M8.25 11a1.25 1.25 0 11-2.5 0 1.25 1.25 0 012.5 0zM13 9.75a1.25 1.25 0 100 2.5 1.25 1.25 0 000-2.5zm7 .25c0 5.52-4.48 10-10 10S0 15.52 0 10 4.48 0 10 0s10 4.48 10 10zM8.66 2.12C10.06 4.44 12.6 6 15.5 6c.46 0 .91-.05 1.34-.12C15.44 3.56 12.9 2 10 2c-.46 0-.91.05-1.34.12zM2.42 7.47a8.046 8.046 0 003.66-4.44 8.046 8.046 0 00-3.66 4.44zM18 10c0-.78-.12-1.53-.33-2.24-.7.15-1.42.24-2.17.24a10 10 0 01-7.76-3.69A10.016 10.016 0 012 9.86c.01.04 0 .09 0 .14 0 4.41 3.59 8 8 8s8-3.59 8-8z"/>
  </defs>
  <use fill-rule="nonzero" transform="translate(2 2)" xlink:href="#person-a"/>
</svg>