<svg xmlns="http://www.w3.org/2000/svg" xmlns:xlink="http://www.w3.org/1999/xlink"><symbol id="arrow-down-circle-filled" viewBox="0 0 24 24">
  <defs/>
  <defs>
    <path id="arrow-down-circle-filled-a" d="M10 0C4.48 0 0 4.48 0 10s4.48 10 10 10 10-4.48 10-10S15.52 0 10 0zm0 13L6 9h8l-4 4z"/>
  </defs>
  <use fill-rule="nonzero" transform="translate(2 2)" xmlns:xlink="http://www.w3.org/1999/xlink" xlink:href="#arrow-down-circle-filled-a"/>
</symbol><use xlink:href="#arrow-down-circle-filled" x="0" y="0" width="24" height="24"/><view id="arrow-down-circle-filled-view" viewBox="0 0 24 24"/><symbol id="arrow-down-circle" viewBox="0 0 24 24">
  <defs/>
  <defs>
    <path id="arrow-down-circle-a" d="M10 2c4.41 0 8 3.59 8 8s-3.59 8-8 8-8-3.59-8-8 3.59-8 8-8m0-2C4.48 0 0 4.48 0 10s4.48 10 10 10 10-4.48 10-10S15.52 0 10 0zm0 13L6 8h8l-4 5z"/>
  </defs>
  <use fill-rule="nonzero" transform="translate(2 2)" xlink:href="#arrow-down-circle-a"/>
</symbol><use xlink:href="#arrow-down-circle" x="0" y="24" width="24" height="24"/><view id="arrow-down-circle-view" viewBox="0 24 24 24"/><symbol id="arrow-down-small" viewBox="0 0 24 24">
  <defs/>
  <defs>
    <path id="arrow-down-small-a" d="M10.59.59L6 5.17 1.41.59 0 2l6 6 6-6z"/>
  </defs>
  <use fill-rule="nonzero" transform="translate(6 8)" xlink:href="#arrow-down-small-a"/>
</symbol><use xlink:href="#arrow-down-small" x="0" y="48" width="24" height="24"/><view id="arrow-down-small-view" viewBox="0 48 24 24"/><symbol id="arrow-down" viewBox="0 0 24 24">
  <defs/>
  <defs>
    <path id="arrow-down-a" d="M.49 18.13l1.77 1.77 9.9-9.9L2.26.1.49 1.87 8.62 10 .49 18.13z"/>
  </defs>
  <use fill-rule="nonzero" transform="rotate(90 8 14)" xlink:href="#arrow-down-a"/>
</symbol><use xlink:href="#arrow-down" x="0" y="72" width="24" height="24"/><view id="arrow-down-view" viewBox="0 72 24 24"/><symbol id="arrow-right-circle" viewBox="0 0 24 24">
  <defs/>
  <defs>
    <path id="arrow-right-circle-a" d="M10 2c4.41 0 8 3.59 8 8s-3.59 8-8 8-8-3.59-8-8 3.59-8 8-8m0-2C4.48 0 0 4.48 0 10s4.48 10 10 10 10-4.48 10-10S15.52 0 10 0zm0 13L6 8h8l-4 5z"/>
  </defs>
  <use fill-rule="nonzero" transform="rotate(-90 12 10)" xlink:href="#arrow-right-circle-a"/>
</symbol><use xlink:href="#arrow-right-circle" x="0" y="96" width="24" height="24"/><view id="arrow-right-circle-view" viewBox="0 96 24 24"/><symbol id="arrow-right-exit" viewBox="0 0 24 24">
  <defs/>
  <defs>
    <path id="arrow-right-exit-a" d="M14 5H3.83l3.58-3.59L6 0 0 6l6 6 1.41-1.41L3.83 7H14z"/>
    <path id="arrow-right-exit-b" d="M6 0v2H1.999L2 10h4v2H0V0h6z"/>
  </defs>
  <g fill-rule="evenodd">
    <use fill-rule="nonzero" transform="matrix(-1 0 0 1 21 6)" xlink:href="#arrow-right-exit-a"/>
    <use fill-rule="nonzero" transform="translate(3 6)" xlink:href="#arrow-right-exit-b"/>
  </g>
</symbol><use xlink:href="#arrow-right-exit" x="0" y="120" width="24" height="24"/><view id="arrow-right-exit-view" viewBox="0 120 24 24"/><symbol id="arrow-right-small" viewBox="0 0 24 24">
  <defs/>
  <defs>
    <path id="arrow-right-small-a" d="M.59 10.59L5.17 6 .59 1.41 2 0l6 6-6 6z"/>
  </defs>
  <use fill-rule="nonzero" transform="translate(8 6)" xlink:href="#arrow-right-small-a"/>
</symbol><use xlink:href="#arrow-right-small" x="0" y="144" width="24" height="24"/><view id="arrow-right-small-view" viewBox="0 144 24 24"/><symbol id="arrow-right" viewBox="0 0 24 24">
  <defs/>
  <defs>
    <path id="arrow-right-a" d="M18 5H3.83l3.58-3.59L6 0 0 6l6 6 1.41-1.41L3.83 7H18z"/>
  </defs>
  <use fill-rule="nonzero" transform="matrix(-1 0 0 1 21 6)" xlink:href="#arrow-right-a"/>
</symbol><use xlink:href="#arrow-right" x="0" y="168" width="24" height="24"/><view id="arrow-right-view" viewBox="0 168 24 24"/><symbol id="arrow-up-circle" viewBox="0 0 24 24">
  <defs/>
  <defs>
    <path id="arrow-up-circle-a" d="M10 2c4.41 0 8 3.59 8 8s-3.59 8-8 8-8-3.59-8-8 3.59-8 8-8m0-2C4.48 0 0 4.48 0 10s4.48 10 10 10 10-4.48 10-10S15.52 0 10 0zm0 13L6 8h8l-4 5z"/>
  </defs>
  <use fill-rule="nonzero" transform="rotate(180 11 11)" xlink:href="#arrow-up-circle-a"/>
</symbol><use xlink:href="#arrow-up-circle" x="0" y="192" width="24" height="24"/><view id="arrow-up-circle-view" viewBox="0 192 24 24"/><symbol id="arrow-up" viewBox="0 0 24 24">
  <defs/>
  <defs>
    <path id="arrow-up-a" d="M.49 18.13l1.77 1.77 9.9-9.9L2.26.1.49 1.87 8.62 10 .49 18.13z"/>
  </defs>
  <use fill-rule="nonzero" transform="matrix(0 -1 -1 0 22 19)" xlink:href="#arrow-up-a"/>
</symbol><use xlink:href="#arrow-up" x="0" y="216" width="24" height="24"/><view id="arrow-up-view" viewBox="0 216 24 24"/><symbol id="calendar" viewBox="0 0 24 24">
  <defs/>
  <defs>
    <path id="calendar-a" d="M14.4 1.455h-.8V0H12v1.455H4V0H2.4v1.455h-.8c-.88 0-1.6.654-1.6 1.454v11.636C0 15.345.72 16 1.6 16h12.8c.88 0 1.6-.655 1.6-1.455V2.91c0-.8-.72-1.454-1.6-1.454zm0 13.09H1.6V5.091h12.8v9.454z"/>
  </defs>
  <use fill-rule="nonzero" transform="translate(4 4)" xlink:href="#calendar-a"/>
</symbol><use xlink:href="#calendar" x="0" y="240" width="24" height="24"/><view id="calendar-view" viewBox="0 240 24 24"/><symbol id="close" viewBox="0 0 24 24">
  <defs/>
  <defs>
    <path id="close-a" d="M14 1.41L12.59 0 7 5.59 1.41 0 0 1.41 5.59 7 0 12.59 1.41 14 7 8.41 12.59 14 14 12.59 8.41 7z"/>
  </defs>
  <use fill-rule="nonzero" transform="translate(5 5)" xlink:href="#close-a"/>
</symbol><use xlink:href="#close" x="0" y="264" width="24" height="24"/><view id="close-view" viewBox="0 264 24 24"/><symbol id="download" viewBox="0 0 24 24">
  <defs/>
  <defs>
    <path id="download-a" d="M16.125 5.033A6.242 6.242 0 0010 0a6.246 6.246 0 00-5.542 3.367A4.995 4.995 0 000 8.333c0 2.759 2.242 5 5 5h10.833c2.3 0 4.167-1.866 4.167-4.166 0-2.2-1.708-3.984-3.875-4.134zM14.167 7.5L10 11.667 5.833 7.5h2.5V4.167h3.334V7.5h2.5z"/>
  </defs>
  <use fill-rule="nonzero" transform="translate(2 5)" xlink:href="#download-a"/>
</symbol><use xlink:href="#download" x="0" y="288" width="24" height="24"/><view id="download-view" viewBox="0 288 24 24"/><symbol id="home" viewBox="0 0 24 24">
  <defs/>
  <defs>
    <path id="home-a" d="M8 17v-6h4v6h5V9h3L10 0 0 9h3v8z"/>
  </defs>
  <use fill-rule="nonzero" transform="translate(2 3)" xlink:href="#home-a"/>
</symbol><use xlink:href="#home" x="0" y="312" width="24" height="24"/><view id="home-view" viewBox="0 312 24 24"/><symbol id="info" viewBox="0 0 24 24">
  <defs/>
  <defs>
    <path id="info-a" d="M9 5h2v2H9V5zm0 4h2v6H9V9zm1-9C4.48 0 0 4.48 0 10s4.48 10 10 10 10-4.48 10-10S15.52 0 10 0zm0 18c-4.41 0-8-3.59-8-8s3.59-8 8-8 8 3.59 8 8-3.59 8-8 8z"/>
  </defs>
  <use fill-rule="nonzero" transform="translate(2 2)" xlink:href="#info-a"/>
</symbol><use xlink:href="#info" x="0" y="336" width="24" height="24"/><view id="info-view" viewBox="0 336 24 24"/><symbol id="mail" viewBox="0 0 24 24">
  <defs/>
  <defs>
    <path id="mail-a" d="M18 0H2C.9 0 .01.9.01 2L0 14c0 1.1.9 2 2 2h16c1.1 0 2-.9 2-2V2c0-1.1-.9-2-2-2zm0 14H2V4l8 5 8-5v10zm-8-7L2 2h16l-8 5z"/>
  </defs>
  <use fill-rule="nonzero" transform="translate(2 4)" xlink:href="#mail-a"/>
</symbol><use xlink:href="#mail" x="0" y="360" width="24" height="24"/><view id="mail-view" viewBox="0 360 24 24"/><symbol id="marker" viewBox="0 0 24 24">
  <defs/>
  <defs>
    <path id="marker-a" d="M12 2C8.13 2 5 5.13 5 9c0 5.25 7 13 7 13s7-7.75 7-13c0-3.87-3.13-7-7-7zm0 9.5a2.5 2.5 0 010-5 2.5 2.5 0 010 5z"/>
  </defs>
  <use fill-rule="nonzero" xlink:href="#marker-a"/>
</symbol><use xlink:href="#marker" x="0" y="384" width="24" height="24"/><view id="marker-view" viewBox="0 384 24 24"/><symbol id="menu" viewBox="0 0 56 56">
  <defs/>
  <defs>
    <path id="menu-a" d="M25 18v2H0v-2h25zm0-9v2H0V9h25zm0-9v2H0V0h25z"/>
  </defs>
  <use fill-rule="evenodd" transform="translate(16 18)" xlink:href="#menu-a"/>
</symbol><use xlink:href="#menu" x="0" y="408" width="56" height="56"/><view id="menu-view" viewBox="0 408 56 56"/><symbol id="minus" viewBox="0 0 24 24">
  <defs/>
  <defs>
    <path id="minus-a" d="M14 2H0V0h14z"/>
  </defs>
  <use fill-rule="nonzero" transform="translate(5 11)" xlink:href="#minus-a"/>
</symbol><use xlink:href="#minus" x="0" y="464" width="24" height="24"/><view id="minus-view" viewBox="0 464 24 24"/><symbol id="person" viewBox="0 0 24 24">
  <defs/>
  <defs>
    <path id="person-a" d="M8.25 11a1.25 1.25 0 11-2.5 0 1.25 1.25 0 012.5 0zM13 9.75a1.25 1.25 0 100 2.5 1.25 1.25 0 000-2.5zm7 .25c0 5.52-4.48 10-10 10S0 15.52 0 10 4.48 0 10 0s10 4.48 10 10zM8.66 2.12C10.06 4.44 12.6 6 15.5 6c.46 0 .91-.05 1.34-.12C15.44 3.56 12.9 2 10 2c-.46 0-.91.05-1.34.12zM2.42 7.47a8.046 8.046 0 003.66-4.44 8.046 8.046 0 00-3.66 4.44zM18 10c0-.78-.12-1.53-.33-2.24-.7.15-1.42.24-2.17.24a10 10 0 01-7.76-3.69A10.016 10.016 0 012 9.86c.01.04 0 .09 0 .14 0 4.41 3.59 8 8 8s8-3.59 8-8z"/>
  </defs>
  <use fill-rule="nonzero" transform="translate(2 2)" xlink:href="#person-a"/>
</symbol><use xlink:href="#person" x="0" y="488" width="24" height="24"/><view id="person-view" viewBox="0 488 24 24"/><symbol id="phone-mobile" viewBox="0 0 24 24">
  <defs/>
  <defs>
    <path id="phone-mobile-a" d="M15.5 1h-8A2.5 2.5 0 005 3.5v17A2.5 2.5 0 007.5 23h8a2.5 2.5 0 002.5-2.5v-17A2.5 2.5 0 0015.5 1zm-4 21c-.83 0-1.5-.67-1.5-1.5s.67-1.5 1.5-1.5 1.5.67 1.5 1.5-.67 1.5-1.5 1.5zm4.5-4H7V4h9v14z"/>
  </defs>
  <use fill-rule="nonzero" xlink:href="#phone-mobile-a"/>
</symbol><use xlink:href="#phone-mobile" x="0" y="512" width="24" height="24"/><view id="phone-mobile-view" viewBox="0 512 24 24"/><symbol id="phone" viewBox="0 0 24 24">
  <defs/>
  <defs>
    <path id="phone-a" d="M6.62 10.79c1.44 2.83 3.76 5.14 6.59 6.59l2.2-2.2c.27-.27.67-.36 1.02-.24 1.12.37 2.33.57 3.57.57.55 0 1 .45 1 1V20c0 .55-.45 1-1 1-9.39 0-17-7.61-17-17 0-.55.45-1 1-1h3.5c.55 0 1 .45 1 1 0 1.25.2 2.45.57 3.57.11.35.03.74-.25 1.02l-2.2 2.2z"/>
  </defs>
  <use fill-rule="nonzero" xlink:href="#phone-a"/>
</symbol><use xlink:href="#phone" x="0" y="536" width="24" height="24"/><view id="phone-view" viewBox="0 536 24 24"/><symbol id="plus" viewBox="0 0 24 24">
  <defs>
    <path id="plus-a" d="M14 8H8v6H6V8H0V6h6V0h2v6h6z"/>
  </defs>
  <use fill-rule="nonzero" transform="translate(5 5)" xlink:href="#plus-a"/>
</symbol><use xlink:href="#plus" x="0" y="560" width="24" height="24"/><view id="plus-view" viewBox="0 560 24 24"/><symbol id="search" viewBox="0 0 24 24">
  <defs/>
  <defs>
    <path id="search-a" d="M12.5 11h-.79l-.28-.27A6.471 6.471 0 0013 6.5 6.5 6.5 0 106.5 13c1.61 0 3.09-.59 4.23-1.57l.27.28v.79l5 4.99L17.49 16l-4.99-5zm-6 0C4.01 11 2 8.99 2 6.5S4.01 2 6.5 2 11 4.01 11 6.5 8.99 11 6.5 11z"/>
  </defs>
  <use fill-rule="nonzero" transform="translate(3 3)" xlink:href="#search-a"/>
</symbol><use xlink:href="#search" x="0" y="584" width="24" height="24"/><view id="search-view" viewBox="0 584 24 24"/><symbol id="send" viewBox="0 0 24 24">
  <defs/>
  <defs>
    <path id="send-a" d="M5.833 12.252l2.712.967-1.809 2.568a.493.493 0 01-.559.187.521.521 0 01-.344-.496v-3.226zM15.27.059a.483.483 0 01.521.038.533.533 0 01.205.502l-1.834 12.87a.526.526 0 01-.234.368.487.487 0 01-.422.048l-6.988-2.492 6.872-8.64-8.881 7.924L.338 9.19a.519.519 0 01-.337-.455.528.528 0 01.268-.502z"/>
  </defs>
  <use fill-rule="nonzero" transform="translate(3 4)" xlink:href="#send-a"/>
</symbol><use xlink:href="#send" x="0" y="608" width="24" height="24"/><view id="send-view" viewBox="0 608 24 24"/></svg>