<svg xmlns="http://www.w3.org/2000/svg" xmlns:xlink="http://www.w3.org/1999/xlink" viewBox="0 0 24 24">
  <defs/>
  <defs>
    <path id="book-a" d="M13.75 0c-1.625 0-3.375.333-4.583 1.25C7.958.333 6.208 0 4.583 0 2.958 0 1.208.333 0 1.25v12.208c0 .542.608.375.625.375 1.125-.541 2.75-.916 3.958-.916 1.625 0 3.375.333 4.584 1.25 1.125-.709 3.166-1.25 4.583-1.25 1.375 0 2.792.25 3.958.875.342.175.625-.159.625-.375V1.25C17.092.317 15.308 0 13.75 0zm2.917 11.667c-.917-.292-1.917-.417-2.917-.417-1.417 0-3.458.542-4.583 1.25V2.917c1.125-.709 3.166-1.25 4.583-1.25 1 0 2 .125 2.917.416v9.584z"/>
  </defs>
  <use fill-rule="nonzero" transform="translate(3 5)" xlink:href="#book-a"/>
</svg>