<svg xmlns="http://www.w3.org/2000/svg" xmlns:xlink="http://www.w3.org/1999/xlink" viewBox="0 0 24 24">
  <defs/>
  <defs>
    <path id="bus-a" d="M15 0c-2.4 0-4.52 1.21-5.78 3.05.01-.01.01-.02.02-.03C8.84 3 8.42 3 8 3c-4.42 0-8 .5-8 4v10c0 .88.39 1.67 1 2.22V21c0 .55.45 1 1 1h1c.55 0 1-.45 1-1v-1h8v1c0 .55.45 1 1 1h1c.55 0 1-.45 1-1v-1.78c.61-.55 1-1.34 1-2.22v-3.08c3.39-.49 6-3.39 6-6.92 0-3.87-3.13-7-7-7zM3.5 18c-.83 0-1.5-.67-1.5-1.5S2.67 15 3.5 15s1.5.67 1.5 1.5S4.33 18 3.5 18zM2 12V7h6c0 1.96.81 3.73 2.11 5H2zm10.5 6c-.83 0-1.5-.67-1.5-1.5s.67-1.5 1.5-1.5 1.5.67 1.5 1.5-.67 1.5-1.5 1.5zm2.5-6c-2.76 0-5-2.24-5-5s2.24-5 5-5 5 2.24 5 5-2.24 5-5 5zm.5-9H14v5l3.62 2.16.75-1.23-2.87-1.68V3z"/>
  </defs>
  <use fill-rule="nonzero" transform="translate(1 1)" xlink:href="#bus-a"/>
</svg>