<svg xmlns="http://www.w3.org/2000/svg" xmlns:xlink="http://www.w3.org/1999/xlink" viewBox="0 0 24 24">
  <defs/>
  <defs>
    <path id="case-plus-a" d="M11.681 0l1.916 1.984v1.938h2.917c.546.031.993.238 1.344.623.348.385.553.838.613 1.361l.96 9.828c.058.525-.07.978-.39 1.362-.319.385-.827.592-1.526.623H1.929c-.7-.03-1.208-.238-1.525-.623-.32-.384-.45-.837-.39-1.362l.957-9.828c.063-.523.258-.976.595-1.361.332-.385.788-.592 1.365-.623h2.917V1.984L7.762 0h3.92zM7.762 3.922h3.92V1.983h-3.92v1.939zm1.003 5.906H5.848v1.985h2.917v2.953h1.914v-2.954h2.918V9.829h-2.918V6.875H8.765v2.953z"/>
  </defs>
  <use fill-rule="evenodd" transform="translate(2 3)" xlink:href="#case-plus-a"/>
</svg>