<svg xmlns="http://www.w3.org/2000/svg" xmlns:xlink="http://www.w3.org/1999/xlink" viewBox="0 0 24 24">
  <defs/>
  <defs>
    <path id="handshake-a" d="M20 1.736v5.862s-1.296.247-1.563.28c-.266.032-1.102.294-1.708-.27-.935-.868-4.255-4.065-4.255-4.065s-.573-.544-1.492-.074c-.844.43-2.095 1.062-2.617 1.308-.988.509-1.807-.299-1.807-.914 0-.477.308-.801.748-1.04C8.496 2.125 11.008.76 12.054.222c.636-.327 1.094-.355 1.966.357a252.37 252.37 0 012.032 1.673s.312.252.81.15C18.084 2.152 20 1.737 20 1.737zM6.783 11.67c.161-.4.107-.848-.2-1.155-.278-.274-.682-.347-1.068-.261.108-.37.048-.765-.23-1.043-.278-.274-.682-.347-1.067-.261.107-.37.047-.764-.231-1.041-.437-.434-1.192-.415-1.688.042-.493.459-.809 1.289-.369 1.778.44.486.945.19 1.33.105-.107.37-.428.714-.033 1.198s.945.19 1.33.106c-.108.369-.414.747-.034 1.196.383.45 1.011.21 1.426.086-.16.398-.503.828-.063 1.31.44.484 1.456.26 1.952-.199.495-.458.542-1.184.107-1.62-.3-.297-.749-.367-1.162-.241zm9.053-3.05c-3.586-3.473-1.9-1.839-3.83-3.712 0 0-.58-.559-1.344-.234-.537.228-1.228.538-1.748.775-.57.29-.982.38-1.175.379-1.105-.007-2-.867-2-1.935 0-.693.38-1.297.946-1.64C7.482 1.72 9.316.775 9.316.775S8.758.088 7.533.088c-1.223 0-3.78 1.622-3.78 1.622s-.726.45-1.76.045L0 1.083V7.79s.57.16 1.08.362c.116-.32.302-.614.56-.857.85-.783 2.255-.79 3.027-.021.233.234.395.513.478.821.31.093.592.258.819.484.233.232.395.513.478.82.31.093.592.258.82.484.255.255.425.564.505.898A1.911 1.911 0 019.15 12.97l.003.001c.008.01.288.312.462.482.342.332.9.332 1.244 0a.835.835 0 000-1.203c-.013-.012-1.234-1.25-1.136-1.345.098-.095 1.654 1.472 1.683 1.501.341.33.9.33 1.242 0a.834.834 0 000-1.203 6.357 6.357 0 01-.112-.106S10.993 9.765 11.11 9.65c.12-.114 2.036 1.617 2.039 1.617.344.3.875.299 1.206-.022a.825.825 0 00.044-1.14c-.006-.017-1.46-1.489-1.347-1.6.115-.112 1.554 1.323 1.557 1.326.34.33.9.33 1.243 0a.836.836 0 000-1.204l-.016-.009z"/>
  </defs>
  <use fill-rule="nonzero" transform="translate(2 5)" xlink:href="#handshake-a"/>
</svg>