<svg xmlns="http://www.w3.org/2000/svg" xmlns:xlink="http://www.w3.org/1999/xlink" viewBox="0 0 24 24">
  <defs/>
  <defs>
    <path id="marker-plus-a" d="M4.793 8.096c-.432-.433-.648-.98-.648-1.646 0-.662.216-1.211.648-1.644.431-.433.978-.65 1.64-.65.662 0 1.21.217 1.64.65.432.433.648.982.648 1.644 0 .665-.216 1.213-.647 1.646-.432.433-.98.65-1.64.65-.663 0-1.21-.217-1.641-.65zM1.857 1.862C.647 3.074.028 4.604 0 6.45c.259 2.628 1.332 5.233 3.217 7.817 1.885 2.582 2.957 3.974 3.217 4.178.259-.204 1.33-1.596 3.215-4.178 1.886-2.584 2.958-5.19 3.216-7.816-.028-1.847-.654-3.377-1.877-4.589C9.764.649 8.246.03 6.434 0 4.59.03 3.065.65 1.857 1.862zM11.96 15.674h2.763v2.77h1.856v-2.77h2.763v-1.82H16.58v-2.77h-1.856v2.77H11.96v1.82z"/>
  </defs>
  <use fill-rule="evenodd" transform="translate(2 3)" xlink:href="#marker-plus-a"/>
</svg>