<svg xmlns="http://www.w3.org/2000/svg" xmlns:xlink="http://www.w3.org/1999/xlink" viewBox="0 0 24 24">
  <defs/>
  <defs>
    <path id="send-a" d="M5.833 12.252l2.712.967-1.809 2.568a.493.493 0 01-.559.187.521.521 0 01-.344-.496v-3.226zM15.27.059a.483.483 0 01.521.038.533.533 0 01.205.502l-1.834 12.87a.526.526 0 01-.234.368.487.487 0 01-.422.048l-6.988-2.492 6.872-8.64-8.881 7.924L.338 9.19a.519.519 0 01-.337-.455.528.528 0 01.268-.502z"/>
  </defs>
  <use fill-rule="nonzero" transform="translate(3 4)" xlink:href="#send-a"/>
</svg>